<svg width="41" height="40" viewBox="0 0 41 40" fill="none" xmlns="http://www.w3.org/2000/svg">
<path fill-rule="evenodd" clip-rule="evenodd" d="M20.7339 39.5106C31.7502 39.5106 40.6807 30.6659 40.6807 19.7553C40.6807 8.84476 31.7502 0 20.7339 0C9.7176 0 0.787109 8.84476 0.787109 19.7553C0.787109 30.6659 9.7176 39.5106 20.7339 39.5106Z" fill="#F5F6FA" fill-opacity="0.01"/>
<mask id="mask0_22_339" style="mask-type:alpha" maskUnits="userSpaceOnUse" x="0" y="0" width="41" height="40">
<path fill-rule="evenodd" clip-rule="evenodd" d="M20.7339 39.5106C31.7502 39.5106 40.6807 30.6659 40.6807 19.7553C40.6807 8.84476 31.7502 0 20.7339 0C9.7176 0 0.787109 8.84476 0.787109 19.7553C0.787109 30.6659 9.7176 39.5106 20.7339 39.5106Z" fill="white"/>
</mask>
<g mask="url(#mask0_22_339)">
</g>
<path d="M23.0195 29.7872V21.0919H25.994L26.4402 17.7022H23.0195V15.5384C23.0195 14.5573 23.2962 13.8887 24.7321 13.8887L26.5606 13.888V10.8561C26.2444 10.8158 25.159 10.7234 23.8956 10.7234C21.2576 10.7234 19.4515 12.3028 19.4515 15.2027V17.7022H16.468V21.0919H19.4515V29.7872H23.0195Z" fill="white"/>
<mask id="mask1_22_339" style="mask-type:alpha" maskUnits="userSpaceOnUse" x="16" y="10" width="11" height="20">
<path d="M23.0195 29.7872V21.0919H25.994L26.4402 17.7022H23.0195V15.5384C23.0195 14.5573 23.2962 13.8887 24.7321 13.8887L26.5606 13.888V10.8561C26.2444 10.8158 25.159 10.7234 23.8956 10.7234C21.2576 10.7234 19.4515 12.3028 19.4515 15.2027V17.7022H16.468V21.0919H19.4515V29.7872H23.0195Z" fill="white"/>
</mask>
<g mask="url(#mask1_22_339)">
<rect x="8.12769" y="7.14893" width="26.2128" height="26.2128" fill="white"/>
</g>
</svg>
