<svg width="41" height="40" viewBox="0 0 41 40" fill="none" xmlns="http://www.w3.org/2000/svg">
<path fill-rule="evenodd" clip-rule="evenodd" d="M20.8404 39.5106C31.8567 39.5106 40.7872 30.6659 40.7872 19.7553C40.7872 8.84476 31.8567 0 20.8404 0C9.82404 0 0.893555 8.84476 0.893555 19.7553C0.893555 30.6659 9.82404 39.5106 20.8404 39.5106Z" fill="#F5F6FA" fill-opacity="0.01"/>
<mask id="mask0_22_351" style="mask-type:alpha" maskUnits="userSpaceOnUse" x="0" y="0" width="41" height="40">
<path fill-rule="evenodd" clip-rule="evenodd" d="M20.8404 39.5106C31.8567 39.5106 40.7872 30.6659 40.7872 19.7553C40.7872 8.84476 31.8567 0 20.8404 0C9.82404 0 0.893555 8.84476 0.893555 19.7553C0.893555 30.6659 9.82404 39.5106 20.8404 39.5106Z" fill="white"/>
</mask>
<g mask="url(#mask0_22_351)">
</g>
<path d="M21.3404 18.5872V21.9234H26.0594C25.3705 23.865 23.5156 25.2595 21.3404 25.2595C18.5814 25.2595 16.3362 23.0143 16.3362 20.2553C16.3362 17.4963 18.5814 15.251 21.3404 15.251C22.5364 15.251 23.6874 15.6797 24.5815 16.4587L26.7734 13.9432C25.2721 12.6355 23.3438 11.9149 21.3404 11.9149C16.7415 11.9149 13 15.6564 13 20.2553C13 24.8542 16.7415 28.5957 21.3404 28.5957C25.9393 28.5957 29.6809 24.8542 29.6809 20.2553V18.5872H21.3404Z" fill="black"/>
<mask id="mask1_22_351" style="mask-type:alpha" maskUnits="userSpaceOnUse" x="13" y="11" width="17" height="18">
<path d="M21.3404 18.5872V21.9234H26.0594C25.3705 23.865 23.5156 25.2595 21.3404 25.2595C18.5814 25.2595 16.3362 23.0143 16.3362 20.2553C16.3362 17.4963 18.5814 15.251 21.3404 15.251C22.5364 15.251 23.6874 15.6797 24.5815 16.4587L26.7734 13.9432C25.2721 12.6355 23.3438 11.9149 21.3404 11.9149C16.7415 11.9149 13 15.6564 13 20.2553C13 24.8542 16.7415 28.5957 21.3404 28.5957C25.9393 28.5957 29.6809 24.8542 29.6809 20.2553V18.5872H21.3404Z" fill="white"/>
</mask>
<g mask="url(#mask1_22_351)">
<rect x="8.23413" y="7.14893" width="26.2128" height="26.2128" fill="white"/>
</g>
</svg>
